<svg width="41" height="41" fill="none" version="1.1" viewBox="0 0 41 41" xmlns="http://www.w3.org/2000/svg">
 <g transform="translate(.11794 1.0794)" stroke-width=".31817">
  <path class="a" d="m20.827 29.236c-1.3045 0-2.5135-0.28635-3.6589-0.79542l1.3045-2.3863c0.73179 0.31817 1.5272 0.47725 2.3544 0.47725 3.5317 0 6.3634-3.0226 6.3634-6.7452 0-2.1317-1.05-3.9453-2.5135-5.1861l1.3999-2.4817c0.3818 0.28635 0.73178 0.60452 1.0818 0.9545 1.6863 1.7817 2.609 4.168 2.609 6.7133 0 5.2179-4.0089 9.4496-8.9405 9.4496z" fill="#004b7f"/>
  <g fill="#007b6c">
   <path class="b" d="m23.214 13.71-0.06363 0.06363-0.09545-0.03182c-0.15908-0.09545-0.31817-0.15908-0.50907-0.22272q-0.22272-0.06363-0.47725-0.12727l-0.06363-0.03182-0.03182-0.09545c-0.79541-3.0226 0.57271-7.8587 3.2135-11.454 0.50907-0.69997 1.05-1.3045 1.5908-1.8454l0.1909-0.15908 0.03182 0.25453q0.22272 1.1454 0.25453 2.4499c0.03182 4.518-1.6545 9.2269-4.0407 11.199z"/>
   <path class="b" d="m19.618 1.301c1.9408 4.0089 2.3863 9.036 1.05 11.931l-0.03182 0.06363h-0.09545c-0.15908 0.03181-0.34998 0.03181-0.54088 0.06363q-0.22272 0.03182-0.47725 0.12727h-0.09545l-0.03182-0.06363c-2.0044-2.3544-2.7999-7.3179-1.9408-11.772 0.1909-0.85905 0.41362-1.6863 0.66815-2.4181l0.09545-0.25453 0.15908 0.22272c0.44543 0.60452 0.85905 1.3363 1.2409 2.0999z"/>
   <path class="b" d="m17.932 13.996v0.09545l-0.06363 0.03181q-0.25453 0.15908-0.47725 0.31817-0.22272 0.12727-0.3818 0.31817l-0.06363 0.06363-0.09545-0.03181c-2.7681-1.209-5.5679-5.2816-6.6497-9.6723q-0.31817-1.3045-0.41362-2.4817l-0.031816-0.25453 0.22272 0.095447c0.66815 0.34998 1.3363 0.79542 2.0045 1.3045 3.4044 2.7044 5.9179 6.9997 5.9497 10.213z"/>
   <path class="b" d="m3.7419 9.5734-0.12727-0.22272h0.25453c0.69997 0 1.4954 0.095447 2.3226 0.25453 4.1998 0.79542 8.2405 3.4998 9.5768 6.3634l0.03182 0.06363-0.03182 0.06363c-0.12727 0.15908-0.22272 0.34998-0.28635 0.50907q-0.12727 0.22272-0.22272 0.47725l-0.03182 0.06363-0.09545 0.03182c-2.9908 0.22272-7.1906-2.1317-10.022-5.5679-0.54088-0.66815-1.0181-1.3363-1.3681-2.0363z"/>
   <path class="b" d="m3.2647 19.787c-0.7636-0.31817-1.4636-0.73179-2.0999-1.1454l-0.1909-0.15908 0.22272-0.095447c0.63634-0.34998 1.3999-0.63634 2.1635-0.89087 4.1362-1.209 8.8769-0.69997 11.295 1.2409l0.06363 0.06363v0.09545c-0.03182 0.1909-0.06363 0.3818-0.06363 0.5727q0 0.25454 0 0.50907l0.03181 0.09545-0.09545 0.03182c-2.5771 1.5908-7.3178 1.4636-11.327-0.31818z"/>
   <path class="b" d="m5.0146 28.059q-1.2409 0.09545-2.3544-0.03182l-0.25453-0.031811 0.15908-0.22272c0.44543-0.63633 0.98632-1.2409 1.5908-1.8136 3.1817-2.9908 7.636-4.7725 10.627-4.168l0.06363 0.03181 0.03182 0.09545q0.09545 0.25453 0.1909 0.54088c0.06363 0.15908 0.12727 0.28635 0.22272 0.44544l0.03182 0.09545-0.03182 0.06363c-1.6545 2.6408-5.9497 4.7407-10.277 4.9952z"/>
   <path class="b" d="m17.137 25.195 0.06363 0.06363v0.09545c-0.3818 3.118-3.3726 7.0315-7.127 9.2905-0.73179 0.41362-1.4636 0.79542-2.1635 1.05l-0.22272 0.095446 0.031816-0.28635c0.15908-0.7636 0.3818-1.559 0.69997-2.3544 1.559-4.1998 4.8361-7.8587 7.7633-8.7178h0.09545l0.06363 0.06363q0.1909 0.22272 0.3818 0.41362c0.12727 0.09545 0.25454 0.1909 0.41362 0.28635z"/>
  </g>
  <path class="a" d="m33.586 23.032c-0.22272 1.0181-0.06363 0.47725-0.3818 1.4318 1.0181 0.66815 2.4499 1.6863 3.3408 2.6408 0.47725 0.50907 0.92268 1.05 1.2727 1.559q-0.5727 1.2727-1.3363 2.4181c-0.60452-0.03182-1.3045-0.1909-1.9726-0.34998-1.2409-0.31817-2.7999-1.1136-3.8498-1.6863-0.63633 0.7636-0.28635 0.3818-0.98632 1.0818 0.60452 1.0818 1.3999 2.7044 1.7817 3.9771 0.1909 0.66815 0.34998 1.3363 0.44544 1.9408-0.73179 0.54088-1.4954 1.05-2.2908 1.4954-0.50907-0.31817-1.0818-0.7636-1.559-1.2409-0.9545-0.89087-1.9726-2.3863-2.6726-3.4362-0.92268 0.3818-0.41362 0.25453-1.3363 0.50907 0.03182 1.2409 0.03182 3.0862-0.22272 4.3907-0.09545 0.63634-0.25453 1.3681-0.44543 1.909-0.85905 0.12727-2.7044 0.1909-2.7681 0.1909-0.25454-0.50907-0.50907-1.209-0.73179-1.8454-0.44544-1.2727-0.69997-3.0862-0.82724-4.3589-0.98632-0.12727-0.47725 0-1.3999-0.25453-0.54088 1.1454-1.3363 2.7681-2.1317 3.7862-0.41362 0.50907-0.82724 0.9545-1.2409 1.3681q-0.98632-0.3818-1.9408-0.89087l4.1362-7.5406c1.3363 0.60452 2.8317 0.9545 4.3271 0.9545 2.8635 0 5.5679-1.1772 7.5724-3.3089 2.0363-2.1317 3.1499-4.9952 3.1499-8.0178 0-3.0226-1.1136-5.8543-3.1499-7.986q-0.5727-0.63634-1.2409-1.1454l4.1044-7.4769c0.60452 0.41362 1.1772 0.85905 1.7499 1.3681-0.12727 0.63633-0.25453 1.209-0.50907 1.909-0.41362 1.2727-1.3363 2.8317-2.0045 3.8816 0.69997 0.7636 0.3818 0.34998 0.92269 1.1454 1.1136-0.50907 2.7044-1.209 3.9453-1.4318 0.66815-0.15908 1.3045-0.22272 1.909-0.22272q0.66815 1.209 1.1454 2.5135c-0.3818 0.50907-0.82724 1.0181-1.3363 1.5272-0.92269 0.89087-2.4499 1.8136-3.4998 2.4181 0.28635 1.0181 0.15908 0.47725 0.31817 1.4636 1.1772 0.09545 2.8953 0.28635 4.1044 0.66815 0.63634 0.22272 1.2727 0.50907 1.8136 0.79542 0 0.22272 0 2.0363-0.06363 2.7681-0.5727 0.25453-1.2409 0.47725-1.9408 0.66815-1.209 0.34998-2.959 0.3818-4.1998 0.41362z" fill="#004b7f"/>
 </g>
</svg>